<svg width="15" height="9" viewBox="0 0 15 9" fill="none" xmlns="http://www.w3.org/2000/svg">
  <path fill-rule="evenodd" clip-rule="evenodd" d="M14.0156 1.01505C14.4094 1.40876 14.4094 2.04708 14.0156 2.44079L8.31266 8.14378C7.91895 8.53748 7.28062 8.53748 6.88692 8.14378C6.49321 7.75007 6.49321 7.11174 6.88692 6.71803L12.5899 1.01505C12.9836 0.621339 13.6219 0.621339 14.0156 1.01505Z" fill="#9B9B9B"/>
  <path fill-rule="evenodd" clip-rule="evenodd" d="M1.18361 1.01504C1.57732 0.621334 2.21565 0.621334 2.60936 1.01504L8.31234 6.71802C8.70605 7.11173 8.70605 7.75006 8.31234 8.14377C7.91863 8.53748 7.2803 8.53748 6.88659 8.14377L1.18361 2.44079C0.789903 2.04708 0.789903 1.40875 1.18361 1.01504Z" fill="#9B9B9B"/>
</svg>
