<svg width="40" height="40" viewBox="0 0 40 40" fill="none" xmlns="http://www.w3.org/2000/svg">
  <path fill-rule="evenodd" clip-rule="evenodd" d="M38.9762 5.97166L24.9526 19.9979L38.9762 34.03C40.3413 35.3895 40.3413 37.6066 38.9762 38.9719C38.2937 39.6545 37.3954 39.9987 36.497 39.9987C35.6103 39.9987 34.712 39.6545 34.0236 38.9719L20 24.9456L5.97637 38.9719C5.29386 39.6545 4.38967 39.9987 3.50299 39.9987C2.60464 39.9987 1.70629 39.6545 1.02377 38.9719C-0.341257 37.6066 -0.341257 35.3895 1.02377 34.03L15.0474 19.9979L1.02377 5.97166C-0.341257 4.61221 -0.341257 2.39508 1.02377 1.02396C2.39463 -0.341321 4.60551 -0.341321 5.97637 1.02396L20 15.0502L34.0236 1.02396C35.4003 -0.341321 37.617 -0.335487 38.9762 1.02396C40.3413 2.39508 40.3413 4.61221 38.9762 5.97166Z" fill="#D0021B"/>
</svg>
