<svg width="20" height="20" viewBox="0 0 20 20" fill="none" xmlns="http://www.w3.org/2000/svg">
  <path fill-rule="evenodd" clip-rule="evenodd" d="M10 0C6.907 0 4.062 1.426 2.185 3.792V1.677C2.185 1.332 1.905 1.052 1.561 1.052C1.216 1.052 0.936 1.332 0.936 1.677V5.844C0.936 6.189 1.216 6.469 1.561 6.469H5.728C6.072 6.469 6.352 6.189 6.352 5.844C6.352 5.499 6.072 5.219 5.728 5.219H2.689C4.299 2.758 7.021 1.25 10 1.25C14.825 1.25 18.751 5.175 18.751 10C18.751 14.825 14.825 18.75 10 18.75C5.175 18.75 1.249 14.825 1.249 10C1.249 9.655 0.969 9.375 0.625 9.375C0.28 9.375 0 9.655 0 10C0 15.514 4.485 20 10 20C15.515 20 20 15.514 20 10C20 4.486 15.515 0 10 0Z" fill="#323232"/>
</svg>
