<svg width="81" height="82" viewBox="0 0 81 82" fill="none" xmlns="http://www.w3.org/2000/svg">
<path fill-rule="evenodd" clip-rule="evenodd" d="M76.4187 40.5019C76.4187 20.6942 60.3058 4.58512 40.5019 4.58512C20.6942 4.58512 4.5813 20.6942 4.5813 40.5019C4.5813 60.3096 20.6942 76.4187 40.5019 76.4187C60.3058 76.4187 76.4187 60.3096 76.4187 40.5019ZM81 40.5019C81 62.8353 62.8315 81.0038 40.5019 81.0038C18.1685 81.0038 0 62.8353 0 40.5019C0 18.1685 18.1685 0 40.5019 0C62.8315 0 81 18.1685 81 40.5019ZM56.2709 29.5091C57.165 30.3994 57.165 31.8551 56.2709 32.7492L37.5216 51.4947C37.0745 51.9418 36.4899 52.1672 35.9015 52.1672C35.3169 52.1672 34.7323 51.9418 34.2853 51.4947L24.7329 41.9424C23.835 41.0521 23.835 39.5963 24.7329 38.7023C25.627 37.8082 27.0751 37.8082 27.9692 38.7023L35.9015 46.6307L53.0308 29.5091C53.9249 28.615 55.373 28.615 56.2709 29.5091Z" fill="#5ABE2D"/>
</svg>
