<svg width="84" height="83" viewBox="0 0 84 83" fill="none" xmlns="http://www.w3.org/2000/svg">
<path opacity="0.501786" fill-rule="evenodd" clip-rule="evenodd" d="M44.4047 77.813H66.9726V44.897H44.4047V77.813ZM16.6542 77.813H39.222V44.897H16.6542V77.813ZM6.19797 39.7099L41.8156 5.37614L77.4331 39.7099H6.19797ZM80.7183 77.813H72.1597V44.897H78.5829C80.5194 44.897 82.2441 43.7342 82.966 41.936C83.6922 40.1379 83.2556 38.1106 81.8594 36.7663L45.0963 1.33458C43.2463 -0.446301 40.3632 -0.441978 38.5391 1.33026L1.7717 36.7663C0.375529 38.1106 -0.0567236 40.1379 0.66946 41.936C1.39132 43.7342 3.11169 44.897 5.04818 44.897H11.4758V77.813H2.91285C1.48209 77.813 0.319336 78.9714 0.319336 80.4065C0.319336 81.8416 1.48209 83 2.91285 83H80.7183C82.149 83 83.3118 81.8416 83.3118 80.4065C83.3118 78.9714 82.149 77.813 80.7183 77.813Z" fill="#323232"/>
</svg>
