<svg width="74" height="40" viewBox="0 0 74 40" fill="none" xmlns="http://www.w3.org/2000/svg">
<mask id="mask0" mask-type="alpha" maskUnits="userSpaceOnUse" x="0" y="0" width="74" height="40">
<path fill-rule="evenodd" clip-rule="evenodd" d="M0 0H74V40H0V0Z" fill="white"/>
</mask>
<g mask="url(#mask0)">
<path fill-rule="evenodd" clip-rule="evenodd" d="M62.0269 28.4702C61.0634 27.5015 59.7302 26.9036 58.2538 26.9036C56.7775 26.9036 55.445 27.5015 54.4815 28.4702C53.5173 29.4389 52.9227 30.7793 52.9227 32.2636C52.9227 33.748 53.5173 35.0876 54.4815 36.0571C55.445 37.0258 56.7775 37.6236 58.2538 37.6236C59.7302 37.6236 61.0634 37.0258 62.0269 36.0571C62.9904 35.0876 63.585 33.748 63.585 32.2636C63.585 30.7793 62.9904 29.4389 62.0269 28.4702V28.4702ZM18.9463 28.4702C17.9828 27.5015 16.6496 26.9036 15.1733 26.9036C13.6969 26.9036 12.3644 27.5015 11.4009 28.4702C10.4367 29.4389 9.84207 30.7793 9.84207 32.2636C9.84207 33.748 10.4367 35.0876 11.4009 36.0571C12.3644 37.0258 13.6969 37.6236 15.1733 37.6236C16.6496 37.6236 17.9828 37.0258 18.9463 36.0571C19.9098 35.0876 20.5044 33.748 20.5044 32.2636C20.5044 30.7793 19.9098 29.4389 18.9463 28.4702V28.4702ZM65.1844 33.0884C64.9999 34.6964 64.2621 36.1393 63.1749 37.2316C61.9242 38.4891 60.1816 39.2731 58.2538 39.2731C56.3268 39.2731 54.5835 38.4891 53.3328 37.2316C52.2463 36.1393 51.5078 34.6964 51.3233 33.0884C51.3233 33.0884 38.2 33.0884 31.6384 33.0884C28.4602 33.0884 22.1038 33.0884 22.1038 33.0884C21.9193 34.6964 21.1815 36.1393 20.1153 37.2316C18.8436 38.4891 17.101 39.2731 15.1733 39.2731C13.2462 39.2731 11.5029 38.4891 10.2522 37.2316C9.16573 36.1393 8.44815 34.6964 8.24272 33.0884H4.92104C3.56762 33.0884 2.33718 32.5313 1.45613 31.6447C0.553373 30.7378 0 29.5007 0 28.14V13.7095C0 10.0811 1.47638 6.78291 3.8548 4.39091C6.23322 1.99964 9.51439 0.515274 13.1232 0.515274H60.2843C63.8932 0.515274 67.1736 1.99964 69.552 4.39091C71.9305 6.78291 73.4068 10.0811 73.4068 13.7095V28.14C73.4068 29.5007 72.8535 30.7378 71.9717 31.6447C71.0697 32.5313 69.8392 33.0884 68.4858 33.0884H65.1844ZM63.1749 27.316C64.2621 28.388 64.9999 29.8309 65.1844 31.4389H68.4858C69.3878 31.4389 70.2081 31.068 70.8027 30.4702C71.3973 29.8724 71.767 29.0476 71.767 28.14V13.7095C71.767 10.5349 70.4751 7.64837 68.4041 5.56618C66.3121 3.46364 63.4418 2.16473 60.2843 2.16473H13.1232C9.96504 2.16473 7.09474 3.46364 5.02375 5.56618C2.93251 7.64837 1.64059 10.5349 1.64059 13.7095V28.14C1.64059 29.0476 2.0095 29.8724 2.60411 30.4702C3.19871 31.068 4.019 31.4389 4.92104 31.4389H8.24272C8.44815 29.8309 9.16573 28.388 10.2522 27.316C11.5029 26.0375 13.2462 25.2542 15.1733 25.2542C17.101 25.2542 18.8436 26.0375 20.1153 27.316C21.1815 28.388 21.9193 29.8309 22.1038 31.4389H51.3233C51.5078 29.8309 52.2463 28.388 53.3328 27.316C54.5835 26.0375 56.3268 25.2542 58.2538 25.2542C60.1816 25.2542 61.9242 26.0375 63.1749 27.316Z" fill="#00A8FF"/>
<path d="M14.6914 10.6641H12.0312V18H10.5605V10.6641H7.92383V9.46875H14.6914V10.6641ZM17.9434 18.1172C17.041 18.1172 16.3086 17.834 15.7461 17.2676C15.1875 16.6973 14.9082 15.9395 14.9082 14.9941V14.8184C14.9082 14.1855 15.0293 13.6211 15.2715 13.125C15.5176 12.625 15.8613 12.2363 16.3027 11.959C16.7441 11.6816 17.2363 11.543 17.7793 11.543C18.6426 11.543 19.3086 11.8184 19.7773 12.3691C20.25 12.9199 20.4863 13.6992 20.4863 14.707V15.2812H16.3438C16.3867 15.8047 16.5605 16.2188 16.8652 16.5234C17.1738 16.8281 17.5605 16.9805 18.0254 16.9805C18.6777 16.9805 19.209 16.7168 19.6191 16.1895L20.3867 16.9219C20.1328 17.3008 19.793 17.5957 19.3672 17.8066C18.9453 18.0137 18.4707 18.1172 17.9434 18.1172ZM17.7734 12.6855C17.3828 12.6855 17.0664 12.8223 16.8242 13.0957C16.5859 13.3691 16.4336 13.75 16.3672 14.2383H19.0801V14.1328C19.0488 13.6562 18.9219 13.2969 18.6992 13.0547C18.4766 12.8086 18.168 12.6855 17.7734 12.6855ZM23.1113 18H21.6875V9H23.1113V18ZM27.459 18.1172C26.5566 18.1172 25.8242 17.834 25.2617 17.2676C24.7031 16.6973 24.4238 15.9395 24.4238 14.9941V14.8184C24.4238 14.1855 24.5449 13.6211 24.7871 13.125C25.0332 12.625 25.377 12.2363 25.8184 11.959C26.2598 11.6816 26.752 11.543 27.2949 11.543C28.1582 11.543 28.8242 11.8184 29.293 12.3691C29.7656 12.9199 30.002 13.6992 30.002 14.707V15.2812H25.8594C25.9023 15.8047 26.0762 16.2188 26.3809 16.5234C26.6895 16.8281 27.0762 16.9805 27.541 16.9805C28.1934 16.9805 28.7246 16.7168 29.1348 16.1895L29.9023 16.9219C29.6484 17.3008 29.3086 17.5957 28.8828 17.8066C28.4609 18.0137 27.9863 18.1172 27.459 18.1172ZM27.2891 12.6855C26.8984 12.6855 26.582 12.8223 26.3398 13.0957C26.1016 13.3691 25.9492 13.75 25.8828 14.2383H28.5957V14.1328C28.5645 13.6562 28.4375 13.2969 28.2148 13.0547C27.9922 12.8086 27.6836 12.6855 27.2891 12.6855ZM36.6641 14.8945C36.6641 15.875 36.4414 16.6582 35.9961 17.2441C35.5508 17.8262 34.9531 18.1172 34.2031 18.1172C33.5078 18.1172 32.9512 17.8887 32.5332 17.4316V20.4375H31.1094V11.6602H32.4219L32.4805 12.3047C32.8984 11.7969 33.4668 11.543 34.1855 11.543C34.959 11.543 35.5645 11.832 36.002 12.4102C36.4434 12.9844 36.6641 13.7832 36.6641 14.8066V14.8945ZM35.2461 14.7715C35.2461 14.1387 35.1191 13.6367 34.8652 13.2656C34.6152 12.8945 34.2559 12.709 33.7871 12.709C33.2051 12.709 32.7871 12.9492 32.5332 13.4297V16.2422C32.791 16.7344 33.2129 16.9805 33.7988 16.9805C34.252 16.9805 34.6055 16.7988 34.8594 16.4355C35.1172 16.0684 35.2461 15.5137 35.2461 14.7715ZM37.6074 14.7715C37.6074 14.1504 37.7305 13.5918 37.9766 13.0957C38.2227 12.5957 38.5684 12.2129 39.0137 11.9473C39.459 11.6777 39.9707 11.543 40.5488 11.543C41.4043 11.543 42.0977 11.8184 42.6289 12.3691C43.1641 12.9199 43.4531 13.6504 43.4961 14.5605L43.502 14.8945C43.502 15.5195 43.3809 16.0781 43.1387 16.5703C42.9004 17.0625 42.5566 17.4434 42.1074 17.7129C41.6621 17.9824 41.1465 18.1172 40.5605 18.1172C39.666 18.1172 38.9492 17.8203 38.4102 17.2266C37.875 16.6289 37.6074 15.834 37.6074 14.8418V14.7715ZM39.0312 14.8945C39.0312 15.5469 39.166 16.0586 39.4355 16.4297C39.7051 16.7969 40.0801 16.9805 40.5605 16.9805C41.041 16.9805 41.4141 16.793 41.6797 16.418C41.9492 16.043 42.084 15.4941 42.084 14.7715C42.084 14.1309 41.9453 13.623 41.668 13.248C41.3945 12.873 41.0215 12.6855 40.5488 12.6855C40.084 12.6855 39.7148 12.8711 39.4414 13.2422C39.168 13.6094 39.0312 14.1602 39.0312 14.8945ZM48.0254 12.9609C47.8379 12.9297 47.6445 12.9141 47.4453 12.9141C46.793 12.9141 46.3535 13.1641 46.127 13.6641V18H44.7031V11.6602H46.0625L46.0977 12.3691C46.4414 11.8184 46.918 11.543 47.5273 11.543C47.7305 11.543 47.8984 11.5703 48.0312 11.625L48.0254 12.9609ZM51.002 10.1191V11.6602H52.1211V12.7148H51.002V16.2539C51.002 16.4961 51.0488 16.6719 51.1426 16.7812C51.2402 16.8867 51.4121 16.9395 51.6582 16.9395C51.8223 16.9395 51.9883 16.9199 52.1562 16.8809V17.9824C51.832 18.0723 51.5195 18.1172 51.2188 18.1172C50.125 18.1172 49.5781 17.5137 49.5781 16.3066V12.7148H48.5352V11.6602H49.5781V10.1191H51.002ZM52.7715 14.7715C52.7715 14.1504 52.8945 13.5918 53.1406 13.0957C53.3867 12.5957 53.7324 12.2129 54.1777 11.9473C54.623 11.6777 55.1348 11.543 55.7129 11.543C56.5684 11.543 57.2617 11.8184 57.793 12.3691C58.3281 12.9199 58.6172 13.6504 58.6602 14.5605L58.666 14.8945C58.666 15.5195 58.5449 16.0781 58.3027 16.5703C58.0645 17.0625 57.7207 17.4434 57.2715 17.7129C56.8262 17.9824 56.3105 18.1172 55.7246 18.1172C54.8301 18.1172 54.1133 17.8203 53.5742 17.2266C53.0391 16.6289 52.7715 15.834 52.7715 14.8418V14.7715ZM54.1953 14.8945C54.1953 15.5469 54.3301 16.0586 54.5996 16.4297C54.8691 16.7969 55.2441 16.9805 55.7246 16.9805C56.2051 16.9805 56.5781 16.793 56.8438 16.418C57.1133 16.043 57.248 15.4941 57.248 14.7715C57.248 14.1309 57.1094 13.623 56.832 13.248C56.5586 12.873 56.1855 12.6855 55.7129 12.6855C55.248 12.6855 54.8789 12.8711 54.6055 13.2422C54.332 13.6094 54.1953 14.1602 54.1953 14.8945ZM63.4238 16.2773C63.4238 16.0234 63.3184 15.8301 63.1074 15.6973C62.9004 15.5645 62.5547 15.4473 62.0703 15.3457C61.5859 15.2441 61.1816 15.1152 60.8574 14.959C60.1465 14.6152 59.791 14.1172 59.791 13.4648C59.791 12.918 60.0215 12.4609 60.4824 12.0938C60.9434 11.7266 61.5293 11.543 62.2402 11.543C62.998 11.543 63.6094 11.7305 64.0742 12.1055C64.543 12.4805 64.7773 12.9668 64.7773 13.5645H63.3535C63.3535 13.291 63.252 13.0645 63.0488 12.8848C62.8457 12.7012 62.5762 12.6094 62.2402 12.6094C61.9277 12.6094 61.6719 12.6816 61.4727 12.8262C61.2773 12.9707 61.1797 13.1641 61.1797 13.4062C61.1797 13.625 61.2715 13.7949 61.4551 13.916C61.6387 14.0371 62.0098 14.1602 62.5684 14.2852C63.127 14.4062 63.5645 14.5527 63.8809 14.7246C64.2012 14.8926 64.4375 15.0957 64.5898 15.334C64.7461 15.5723 64.8242 15.8613 64.8242 16.2012C64.8242 16.7715 64.5879 17.2344 64.1152 17.5898C63.6426 17.9414 63.0234 18.1172 62.2578 18.1172C61.7383 18.1172 61.2754 18.0234 60.8691 17.8359C60.4629 17.6484 60.1465 17.3906 59.9199 17.0625C59.6934 16.7344 59.5801 16.3809 59.5801 16.002H60.9629C60.9824 16.3379 61.1094 16.5977 61.3438 16.7812C61.5781 16.9609 61.8887 17.0508 62.2754 17.0508C62.6504 17.0508 62.9355 16.9805 63.1309 16.8398C63.3262 16.6953 63.4238 16.5078 63.4238 16.2773Z" fill="#00A8FF"/>
</g>
</svg>
