<svg width="12" height="12" viewBox="0 0 12 12" fill="none" xmlns="http://www.w3.org/2000/svg">
<path fill-rule="evenodd" clip-rule="evenodd" d="M11.6978 0.2925C11.3038 -0.0975 10.6667 -0.0975 10.2727 0.2925L5.97475 4.5925L1.73875 0.3525C1.34775 -0.0375 0.71375 -0.0375 0.32475 0.3525C-0.06625 0.7425 -0.06625 1.3825 0.32475 1.7725L4.56075 6.0025L0.29475 10.2725C-0.09825 10.6625 -0.09825 11.3025 0.29475 11.7025C0.68875 12.0925 1.32675 12.0925 1.72075 11.7025L5.98675 7.4325L10.2227 11.6725C10.6137 12.0625 11.2477 12.0625 11.6377 11.6725C12.0287 11.2825 12.0287 10.6425 11.6377 10.2525L7.40075 6.0225L11.6978 1.7225C12.0907 1.3225 12.0907 0.6925 11.6978 0.2925Z" fill="#323232"/>
</svg>
