<svg width="14" height="11" viewBox="0 0 14 11" fill="none" xmlns="http://www.w3.org/2000/svg">
<path fill-rule="evenodd" clip-rule="evenodd" d="M5.19663 11C5.02671 11 4.88315 10.9414 4.76597 10.8242L0.78452 6.84278C0.556004 6.6084 0.453466 6.32423 0.476903 5.99024C0.500341 5.65625 0.635105 5.40137 0.8812 5.22559C1.1273 5.04395 1.38803 4.97071 1.66343 5.00587C1.93296 5.04102 2.1644 5.15821 2.35776 5.35743L4.77476 7.76563C4.8978 7.88868 5.04136 7.9502 5.20542 7.9502C5.36948 7.9502 5.51011 7.88868 5.62729 7.76563L12.0873 1.30567C12.2806 1.11231 12.5121 0.998054 12.7816 0.962897C13.0511 0.927741 13.3089 1.00098 13.555 1.18262C13.8011 1.35841 13.9388 1.61329 13.9681 1.94727C13.9916 2.28126 13.8861 2.56544 13.6517 2.79981L5.62729 10.8242C5.51011 10.9414 5.36655 11 5.19663 11Z" fill="#5CD18B"/>
</svg>
