<svg width="10" height="11" viewBox="0 0 10 11" fill="none" xmlns="http://www.w3.org/2000/svg">
<path fill-rule="evenodd" clip-rule="evenodd" d="M6.58929 5.13975C6.58929 5.26279 6.63323 5.36826 6.72112 5.45615L9.46331 8.19834C9.68597 8.421 9.78557 8.69638 9.76214 9.02451C9.7387 9.34678 9.60394 9.5958 9.35784 9.77158C9.11175 9.94736 8.85979 10.0177 8.60198 9.98252C8.34417 9.94736 8.11858 9.83603 7.92522 9.64853L5.22698 6.95029C5.13909 6.8624 5.03362 6.81846 4.91057 6.81846C4.78753 6.81846 4.68206 6.8624 4.59417 6.95029L1.85198 9.69248C1.62932 9.921 1.35394 10.0235 1.02581 10.0001C0.697683 9.97666 0.448662 9.84189 0.278739 9.5958C0.108816 9.3497 0.041434 9.09775 0.0765905 8.83994C0.111747 8.58213 0.220144 8.35654 0.401786 8.16318L3.10003 5.45615C3.18792 5.36826 3.23186 5.26279 3.23186 5.13975C3.23186 5.0167 3.18792 4.91123 3.10003 4.82334L0.35784 2.08115C0.135183 1.86435 0.0355747 1.5919 0.0590123 1.26377C0.0824499 0.935642 0.217214 0.683691 0.463309 0.507909C0.709404 0.332127 0.961355 0.261815 1.21917 0.296972C1.47698 0.332128 1.70257 0.443455 1.89593 0.630956L4.59417 3.3292C4.68206 3.41709 4.78753 3.46103 4.91057 3.46103C5.03362 3.46103 5.13909 3.41709 5.22698 3.3292L7.96917 0.587011C8.19183 0.358494 8.46721 0.255956 8.79534 0.279393C9.12347 0.302831 9.37249 0.437595 9.54241 0.68369C9.71233 0.929785 9.77972 1.18467 9.74456 1.44834C9.7094 1.71201 9.60101 1.9376 9.41936 2.1251L6.72112 4.82334C6.63323 4.91123 6.58929 5.0167 6.58929 5.13975Z" fill="#FF7978"/>
</svg>
