<svg width="69" height="69" viewBox="0 0 69 69" fill="none" xmlns="http://www.w3.org/2000/svg">
  <path opacity="0.525249" fill-rule="evenodd" clip-rule="evenodd" d="M6 14C6 9.58172 9.58172 6 14 6H61C65.4183 6 69 9.58172 69 14V61C69 65.4183 65.4183 69 61 69H14C9.58172 69 6 65.4183 6 61V14Z" fill="#CCCCCC"/>
  <path fill-rule="evenodd" clip-rule="evenodd" d="M25.4005 21H49.6011C52.02 21 54 23.016 54 25.4805V49H21V25.4805C21 23.016 22.98 21 25.4005 21V21Z" stroke="#9B9B9B" stroke-width="2" stroke-linecap="round" stroke-linejoin="round"/>
  <path d="M21 40H54" stroke="#9B9B9B" stroke-width="2" stroke-linecap="round" stroke-linejoin="round"/>
  <path d="M21 27H54" stroke="#9B9B9B" stroke-width="2" stroke-linecap="round" stroke-linejoin="round"/>
  <path d="M32 23H44" stroke="#9B9B9B" stroke-linecap="round" stroke-linejoin="round"/>
  <path fill-rule="evenodd" clip-rule="evenodd" d="M23.9997 54H25.0003C26.0999 54 27 53.0999 27 52.0003V49H22V52.0003C22 53.0999 22.9001 54 23.9997 54V54Z" stroke="#9B9B9B" stroke-width="2" stroke-linecap="round" stroke-linejoin="round"/>
  <path fill-rule="evenodd" clip-rule="evenodd" d="M51.0003 54H49.9997C48.9001 54 48 53.0999 48 52.0003V49H53V52.0003C53 53.0999 52.0999 54 51.0003 54V54Z" stroke="#9B9B9B" stroke-width="2" stroke-linecap="round" stroke-linejoin="round"/>
  <path fill-rule="evenodd" clip-rule="evenodd" d="M27 44C27.553 44 28 43.553 28 43C28 42.447 27.553 42 27 42C26.447 42 26 42.447 26 43C26 43.553 26.447 44 27 44Z" fill="#9B9B9B"/>
  <path fill-rule="evenodd" clip-rule="evenodd" d="M48 44C48.553 44 49 43.553 49 43C49 42.447 48.553 42 48 42C47.447 42 47 42.447 47 43C47 43.553 47.447 44 48 44Z" fill="#9B9B9B"/>
  <path fill-rule="evenodd" clip-rule="evenodd" d="M3.27044 0H0V45H3.27044V2.97794H52V0H3.27044Z" fill="#E4E4E4"/>
</svg>
